
<svg version="1.0" xmlns="http://www.w3.org/2000/svg"
 width="1280.000000pt" height="645.000000pt" viewBox="0 0 1280.000000 645.000000"
 preserveAspectRatio="xMidYMid meet">
<g transform="translate(0.000000,645.000000) scale(0.100000,-0.100000)"
fill="#000000" stroke="none">
<path d="M8220 6439 c-484 -25 -1023 -88 -1465 -170 -515 -96 -1205 -392
-1870 -802 -156 -96 -557 -361 -783 -516 -189 -130 -272 -179 -547 -321 -402
-207 -682 -368 -953 -547 -112 -73 -147 -102 -157 -127 -8 -18 -31 -48 -52
-66 -21 -18 -55 -53 -75 -79 l-38 -46 0 -142 0 -141 -52 -89 c-67 -113 -122
-241 -149 -346 -20 -75 -21 -99 -16 -282 3 -110 13 -255 22 -322 l16 -122 -55
-165 c-31 -91 -128 -405 -215 -698 -258 -859 -319 -1039 -379 -1108 -105 -123
-323 -197 -489 -165 -38 7 -136 38 -219 69 -82 30 -192 66 -244 80 -132 36
-134 39 -138 185 -3 100 0 135 22 226 28 113 33 205 15 269 -11 38 -63 97
-187 208 -64 58 -65 65 -18 251 67 263 77 349 86 717 5 184 14 720 20 1190 7
470 15 868 19 885 4 16 15 31 24 33 15 3 17 -10 17 -122 0 -69 -4 -126 -9
-126 -34 0 -41 -161 -8 -185 16 -11 17 -111 17 -1263 l0 -1251 27 -20 c62 -50
268 -81 513 -79 91 0 153 3 137 5 -17 3 -25 9 -21 15 14 23 21 87 10 91 -6 2
40 14 101 27 l113 23 -1 1871 c0 1029 -4 1903 -8 1942 l-8 72 -98 115 c-54 64
-110 121 -126 127 -21 9 -94 9 -304 1 -152 -7 -287 -16 -299 -21 -13 -5 -26
-16 -30 -25 -3 -9 -6 -205 -6 -436 l0 -419 -55 0 c-49 0 -58 -4 -90 -35 -34
-35 -35 -38 -35 -115 0 -65 3 -81 18 -89 16 -9 17 -41 14 -488 -1 -263 -9
-829 -17 -1258 -16 -869 -14 -841 -96 -1176 l-42 -177 17 -46 c10 -26 41 -72
69 -103 29 -31 47 -54 40 -50 -26 16 -18 -20 12 -58 81 -101 113 -212 88 -310
-18 -72 -19 -300 -2 -354 12 -36 50 -85 80 -102 9 -4 59 -19 110 -33 52 -13
171 -54 266 -90 160 -61 315 -106 423 -121 29 -4 40 -3 31 3 -11 8 -11 10 0
14 8 3 -2 8 -21 13 -59 13 -56 18 25 37 174 41 326 148 384 272 43 90 154 428
296 907 70 233 146 487 170 563 l43 140 16 -57 c21 -73 79 -183 156 -296 99
-147 118 -162 266 -224 147 -62 420 -153 576 -193 104 -26 145 -42 75 -29 -36
7 -38 6 -29 -11 6 -11 22 -80 37 -154 15 -74 37 -182 50 -240 12 -58 35 -170
51 -249 25 -122 32 -145 49 -150 11 -3 -10 -9 -50 -12 -114 -11 1605 -1 1900
10 596 23 1033 43 1495 67 267 14 521 25 566 25 91 1 247 20 344 42 241 56
446 244 611 560 31 60 58 105 60 99 3 -7 52 1 134 23 313 80 1644 417 2085
528 206 52 306 73 332 70 21 -3 35 -9 32 -14 -6 -11 18 -2 110 40 l69 31 641
0 641 0 61 29 c182 86 338 366 406 728 29 156 32 490 6 623 -13 63 -15 95 -8
125 15 62 12 248 -6 331 -34 165 -115 354 -270 632 l-65 115 22 61 c15 45 22
95 26 186 l5 126 -61 77 c-68 85 -149 145 -224 166 -62 18 -160 123 -268 289
-26 40 -70 100 -97 135 -87 111 -115 158 -217 361 -123 247 -108 235 -385 305
-662 167 -1320 265 -2008 301 -227 11 -781 11 -1002 -1z m-2195 -703 c-22 -13
-44 -22 -49 -18 -6 3 8 13 30 23 56 25 65 23 19 -5z m-60 -25 c3 -6 -4 -15
-16 -21 -17 -10 -20 -9 -14 1 6 8 4 11 -6 7 -41 -17 -53 -19 -29 -4 14 8 33
13 44 9 12 -3 16 -1 12 6 -4 6 -5 11 -2 11 3 0 7 -4 11 -9z m-145 -61 c-30
-16 -59 -29 -65 -29 -5 0 15 13 45 29 30 16 60 29 65 29 6 0 -15 -13 -45 -29z
m95 21 c-25 -23 -140 -91 -154 -91 -9 1 -2 7 16 15 17 7 55 29 85 49 51 35 72
46 53 27z m-225 -82 c-54 -29 -50 -31 28 -13 15 4 25 4 22 1 -8 -8 -161 -49
-166 -44 -5 5 146 86 161 86 6 0 -15 -13 -45 -30z m-5433 -1121 c-2 -18 -4 -6
-4 27 0 33 2 48 4 33 2 -15 2 -42 0 -60z m103 -108 c0 -11 -7 -20 -15 -20 -18
0 -19 12 -3 28 16 16 18 15 18 -8z m11103 -2007 c7 -27 13 -49 12 -51 -1 -1
-48 4 -103 13 -56 8 -105 15 -109 16 -8 0 165 66 179 68 4 1 13 -20 21 -46z"/>
</g>
</svg>